<svg width="81" height="81" viewBox="0 0 81 81" fill="none" xmlns="http://www.w3.org/2000/svg">
<rect x="1.75" y="1.75" width="77.5" height="77.5" rx="16.25" fill="#DDD8B8" stroke="url(#paint0_linear_126_1157)" stroke-width="2.5"/>
<rect x="3" y="3" width="75" height="75" rx="15" fill="url(#paint1_linear_126_1157)"/>
<rect width="75" height="75" rx="15" transform="matrix(-1 0 0 1 78 3)" fill="url(#paint2_linear_126_1157)"/>
<rect width="75" height="75" rx="15" transform="matrix(-4.37114e-08 1 1 4.37114e-08 3 3)" fill="url(#paint3_linear_126_1157)"/>
<rect width="75" height="75" rx="15" transform="matrix(4.37114e-08 -1 -1 -4.37114e-08 78 78)" fill="url(#paint4_linear_126_1157)"/>
<rect width="68.9306" height="68.9306" rx="12" transform="matrix(4.37114e-08 -1 -1 -4.37114e-08 74.9648 74.9653)" fill="url(#paint5_linear_126_1157)"/>
<rect width="68.9306" height="68.9306" rx="12" transform="matrix(4.37114e-08 -1 -1 -4.37114e-08 74.9648 74.9653)" fill="url(#paint6_linear_126_1157)"/>
<g filter="url(#filter0_di_126_1157)">
<mask id="path-8-outside-1_126_1157" maskUnits="userSpaceOnUse" x="5" y="26" width="69" height="28" fill="black">
<rect fill="white" x="5" y="26" width="69" height="28"/>
<path d="M13.74 51H8.79679L16.3287 29.1818H22.2733L29.7947 51H24.8515L19.3863 34.1676H19.2158L13.74 51ZM13.431 42.424H25.1072V46.0249H13.431V42.424ZM32.4207 51V29.1818H41.1565C42.7616 29.1818 44.1004 29.4197 45.1729 29.8956C46.2453 30.3714 47.0514 31.032 47.5912 31.8771C48.1309 32.7152 48.4008 33.6811 48.4008 34.7749C48.4008 35.6271 48.2304 36.3764 47.8895 37.0227C47.5486 37.6619 47.0798 38.1875 46.4832 38.5994C45.8937 39.0043 45.219 39.2919 44.4591 39.4624V39.6754C45.29 39.7109 46.0677 39.9453 46.7922 40.3786C47.5237 40.8118 48.1167 41.419 48.5713 42.2003C49.0258 42.9744 49.2531 43.8977 49.2531 44.9702C49.2531 46.1278 48.9655 47.1612 48.3902 48.0703C47.822 48.9723 46.9804 49.6861 45.8653 50.2116C44.7503 50.7372 43.376 51 41.7425 51H32.4207ZM37.0336 47.2287H40.7943C42.0798 47.2287 43.0173 46.9837 43.6068 46.4936C44.1963 45.9964 44.491 45.3359 44.491 44.5121C44.491 43.9084 44.3454 43.3757 44.0542 42.9141C43.7631 42.4524 43.3476 42.0902 42.8078 41.8274C42.2751 41.5646 41.6395 41.4332 40.9008 41.4332H37.0336V47.2287ZM37.0336 38.3118H40.4534C41.0855 38.3118 41.6466 38.2017 42.1366 37.9815C42.6338 37.7543 43.0244 37.4347 43.3085 37.0227C43.5997 36.6108 43.7453 36.1172 43.7453 35.5419C43.7453 34.7536 43.4648 34.1179 42.9037 33.6349C42.3497 33.152 41.5613 32.9105 40.5386 32.9105H37.0336V38.3118ZM71.5054 36.8203H66.8392C66.754 36.2166 66.58 35.6804 66.3172 35.2116C66.0544 34.7358 65.7171 34.331 65.3051 33.9972C64.8932 33.6634 64.4173 33.4077 63.8776 33.2301C63.3449 33.0526 62.7661 32.9638 62.1411 32.9638C61.0118 32.9638 60.0281 33.2443 59.1901 33.8054C58.352 34.3594 57.7021 35.169 57.2405 36.2344C56.7789 37.2926 56.548 38.5781 56.548 40.0909C56.548 41.6463 56.7789 42.9531 57.2405 44.0114C57.7093 45.0696 58.3627 45.8686 59.2007 46.4084C60.0388 46.9482 61.0083 47.218 62.1091 47.218C62.727 47.218 63.2987 47.1364 63.8243 46.973C64.357 46.8097 64.8293 46.5717 65.2412 46.2592C65.6531 45.9396 65.9941 45.5526 66.2639 45.098C66.5409 44.6435 66.7327 44.125 66.8392 43.5426L71.5054 43.5639C71.3847 44.5653 71.0828 45.5312 70.5999 46.4616C70.124 47.3849 69.4813 48.2124 68.6716 48.9439C67.8691 49.6683 66.9102 50.2436 65.7952 50.6697C64.6872 51.0888 63.4337 51.2983 62.0345 51.2983C60.0885 51.2983 58.3485 50.858 56.8144 49.9773C55.2874 49.0966 54.08 47.8217 53.1922 46.1527C52.3115 44.4837 51.8712 42.4631 51.8712 40.0909C51.8712 37.7116 52.3186 35.6875 53.2135 34.0185C54.1084 32.3494 55.3229 31.0781 56.857 30.2045C58.3911 29.3239 60.1169 28.8835 62.0345 28.8835C63.2987 28.8835 64.4706 29.0611 65.5502 29.4162C66.6368 29.7713 67.5992 30.2898 68.4372 30.9716C69.2753 31.6463 69.9571 32.4737 70.4827 33.4538C71.0154 34.4339 71.3563 35.5561 71.5054 36.8203Z"/>
</mask>
<path d="M13.74 51H8.79679L16.3287 29.1818H22.2733L29.7947 51H24.8515L19.3863 34.1676H19.2158L13.74 51ZM13.431 42.424H25.1072V46.0249H13.431V42.424ZM32.4207 51V29.1818H41.1565C42.7616 29.1818 44.1004 29.4197 45.1729 29.8956C46.2453 30.3714 47.0514 31.032 47.5912 31.8771C48.1309 32.7152 48.4008 33.6811 48.4008 34.7749C48.4008 35.6271 48.2304 36.3764 47.8895 37.0227C47.5486 37.6619 47.0798 38.1875 46.4832 38.5994C45.8937 39.0043 45.219 39.2919 44.4591 39.4624V39.6754C45.29 39.7109 46.0677 39.9453 46.7922 40.3786C47.5237 40.8118 48.1167 41.419 48.5713 42.2003C49.0258 42.9744 49.2531 43.8977 49.2531 44.9702C49.2531 46.1278 48.9655 47.1612 48.3902 48.0703C47.822 48.9723 46.9804 49.6861 45.8653 50.2116C44.7503 50.7372 43.376 51 41.7425 51H32.4207ZM37.0336 47.2287H40.7943C42.0798 47.2287 43.0173 46.9837 43.6068 46.4936C44.1963 45.9964 44.491 45.3359 44.491 44.5121C44.491 43.9084 44.3454 43.3757 44.0542 42.9141C43.7631 42.4524 43.3476 42.0902 42.8078 41.8274C42.2751 41.5646 41.6395 41.4332 40.9008 41.4332H37.0336V47.2287ZM37.0336 38.3118H40.4534C41.0855 38.3118 41.6466 38.2017 42.1366 37.9815C42.6338 37.7543 43.0244 37.4347 43.3085 37.0227C43.5997 36.6108 43.7453 36.1172 43.7453 35.5419C43.7453 34.7536 43.4648 34.1179 42.9037 33.6349C42.3497 33.152 41.5613 32.9105 40.5386 32.9105H37.0336V38.3118ZM71.5054 36.8203H66.8392C66.754 36.2166 66.58 35.6804 66.3172 35.2116C66.0544 34.7358 65.7171 34.331 65.3051 33.9972C64.8932 33.6634 64.4173 33.4077 63.8776 33.2301C63.3449 33.0526 62.7661 32.9638 62.1411 32.9638C61.0118 32.9638 60.0281 33.2443 59.1901 33.8054C58.352 34.3594 57.7021 35.169 57.2405 36.2344C56.7789 37.2926 56.548 38.5781 56.548 40.0909C56.548 41.6463 56.7789 42.9531 57.2405 44.0114C57.7093 45.0696 58.3627 45.8686 59.2007 46.4084C60.0388 46.9482 61.0083 47.218 62.1091 47.218C62.727 47.218 63.2987 47.1364 63.8243 46.973C64.357 46.8097 64.8293 46.5717 65.2412 46.2592C65.6531 45.9396 65.9941 45.5526 66.2639 45.098C66.5409 44.6435 66.7327 44.125 66.8392 43.5426L71.5054 43.5639C71.3847 44.5653 71.0828 45.5312 70.5999 46.4616C70.124 47.3849 69.4813 48.2124 68.6716 48.9439C67.8691 49.6683 66.9102 50.2436 65.7952 50.6697C64.6872 51.0888 63.4337 51.2983 62.0345 51.2983C60.0885 51.2983 58.3485 50.858 56.8144 49.9773C55.2874 49.0966 54.08 47.8217 53.1922 46.1527C52.3115 44.4837 51.8712 42.4631 51.8712 40.0909C51.8712 37.7116 52.3186 35.6875 53.2135 34.0185C54.1084 32.3494 55.3229 31.0781 56.857 30.2045C58.3911 29.3239 60.1169 28.8835 62.0345 28.8835C63.2987 28.8835 64.4706 29.0611 65.5502 29.4162C66.6368 29.7713 67.5992 30.2898 68.4372 30.9716C69.2753 31.6463 69.9571 32.4737 70.4827 33.4538C71.0154 34.4339 71.3563 35.5561 71.5054 36.8203Z" fill="white"/>
<path d="M13.74 51V53H15.1925L15.6419 51.6187L13.74 51ZM8.79679 51L6.90627 50.3474L5.99054 53H8.79679V51ZM16.3287 29.1818V27.1818H14.9034L14.4382 28.5292L16.3287 29.1818ZM22.2733 29.1818L24.1642 28.53L23.6994 27.1818H22.2733V29.1818ZM29.7947 51V53H32.5996L31.6855 50.3482L29.7947 51ZM24.8515 51L22.9492 51.6176L23.3981 53H24.8515V51ZM19.3863 34.1676L21.2885 33.55L20.8397 32.1676H19.3863V34.1676ZM19.2158 34.1676V32.1676H17.7633L17.3139 33.5489L19.2158 34.1676ZM13.431 42.424V40.424H11.431V42.424H13.431ZM25.1072 42.424H27.1072V40.424H25.1072V42.424ZM25.1072 46.0249V48.0249H27.1072V46.0249H25.1072ZM13.431 46.0249H11.431V48.0249H13.431V46.0249ZM13.74 49H8.79679V53H13.74V49ZM10.6873 51.6526L18.2193 29.8345L14.4382 28.5292L6.90627 50.3474L10.6873 51.6526ZM16.3287 31.1818H22.2733V27.1818H16.3287V31.1818ZM20.3825 29.8336L27.9039 51.6518L31.6855 50.3482L24.1642 28.53L20.3825 29.8336ZM29.7947 49H24.8515V53H29.7947V49ZM26.7537 50.3824L21.2885 33.55L17.484 34.7852L22.9492 51.6176L26.7537 50.3824ZM19.3863 32.1676H19.2158V36.1676H19.3863V32.1676ZM17.3139 33.5489L11.8381 50.3813L15.6419 51.6187L21.1177 34.7863L17.3139 33.5489ZM13.431 44.424H25.1072V40.424H13.431V44.424ZM23.1072 42.424V46.0249H27.1072V42.424H23.1072ZM25.1072 44.0249H13.431V48.0249H25.1072V44.0249ZM15.431 46.0249V42.424H11.431V46.0249H15.431ZM32.4207 51H30.4207V53H32.4207V51ZM32.4207 29.1818V27.1818H30.4207V29.1818H32.4207ZM45.1729 29.8956L44.3617 31.7237L44.3617 31.7237L45.1729 29.8956ZM47.5912 31.8771L45.9056 32.9536L45.9097 32.9601L47.5912 31.8771ZM47.8895 37.0227L49.6542 37.9639L49.6585 37.9558L47.8895 37.0227ZM46.4832 38.5994L47.6154 40.2481L47.6196 40.2452L46.4832 38.5994ZM44.4591 39.4624L44.0214 37.5108L42.4591 37.8613V39.4624H44.4591ZM44.4591 39.6754H42.4591V41.5918L44.3737 41.6736L44.4591 39.6754ZM46.7922 40.3786L45.7656 42.095L45.773 42.0994L46.7922 40.3786ZM48.5713 42.2003L46.8426 43.2061L46.8466 43.2129L48.5713 42.2003ZM48.3902 48.0703L46.7001 47.0008L46.6979 47.0043L48.3902 48.0703ZM45.8653 50.2116L45.0126 48.4025L45.0126 48.4025L45.8653 50.2116ZM37.0336 47.2287H35.0336V49.2287H37.0336V47.2287ZM43.6068 46.4936L44.8853 48.0316L44.8908 48.027L44.8962 48.0225L43.6068 46.4936ZM44.0542 42.9141L42.3626 43.9811L42.3626 43.9811L44.0542 42.9141ZM42.8078 41.8274L41.9229 43.6211L41.9323 43.6256L42.8078 41.8274ZM37.0336 41.4332V39.4332H35.0336V41.4332H37.0336ZM37.0336 38.3118H35.0336V40.3118H37.0336V38.3118ZM42.1366 37.9815L42.9563 39.8059L42.9681 39.8005L42.1366 37.9815ZM43.3085 37.0227L41.6754 35.8683L41.6687 35.8777L41.6621 35.8873L43.3085 37.0227ZM42.9037 33.6349L41.5894 35.1425L41.5989 35.1507L42.9037 33.6349ZM37.0336 32.9105V30.9105H35.0336V32.9105H37.0336ZM34.4207 51V29.1818H30.4207V51H34.4207ZM32.4207 31.1818H41.1565V27.1818H32.4207V31.1818ZM41.1565 31.1818C42.5789 31.1818 43.6203 31.3948 44.3617 31.7237L45.984 28.0675C44.5805 27.4447 42.9444 27.1818 41.1565 27.1818V31.1818ZM44.3617 31.7237C45.1376 32.068 45.6111 32.4926 45.9056 32.9536L49.2767 30.8006C48.4917 29.5713 47.353 28.6749 45.984 28.0675L44.3617 31.7237ZM45.9097 32.9601C46.2215 33.4441 46.4008 34.0264 46.4008 34.7749H50.4008C50.4008 33.3358 50.0404 31.9863 49.2726 30.7942L45.9097 32.9601ZM46.4008 34.7749C46.4008 35.3562 46.2862 35.7754 46.1205 36.0896L49.6585 37.9558C50.1745 36.9775 50.4008 35.8981 50.4008 34.7749H46.4008ZM46.1248 36.0816C45.9342 36.4389 45.681 36.7229 45.3468 36.9536L47.6196 40.2452C48.4787 39.6521 49.1629 38.885 49.6542 37.9639L46.1248 36.0816ZM45.351 36.9508C44.9896 37.1989 44.5549 37.3912 44.0214 37.5108L44.8968 41.4139C45.8832 41.1926 46.7978 40.8096 47.6154 40.2481L45.351 36.9508ZM42.4591 39.4624V39.6754H46.4591V39.4624H42.4591ZM44.3737 41.6736C44.8673 41.6947 45.3222 41.8298 45.7657 42.095L47.8187 38.6621C46.8133 38.0608 45.7128 37.7272 44.5445 37.6772L44.3737 41.6736ZM45.773 42.0994C46.1923 42.3477 46.5485 42.7006 46.8426 43.2061L50.3 41.1945C49.685 40.1375 48.8551 39.2759 47.8113 38.6577L45.773 42.0994ZM46.8466 43.2129C47.0886 43.6252 47.2531 44.1842 47.2531 44.9702H51.2531C51.2531 43.6112 50.963 42.3237 50.296 41.1876L46.8466 43.2129ZM47.2531 44.9702C47.2531 45.7792 47.0575 46.4362 46.7001 47.0008L50.0802 49.1398C50.8735 47.8863 51.2531 46.4765 51.2531 44.9702H47.2531ZM46.6979 47.0043C46.3632 47.5357 45.8378 48.0136 45.0126 48.4025L46.718 52.0208C48.1229 51.3586 49.2808 50.4089 50.0824 49.1363L46.6979 47.0043ZM45.0126 48.4025C44.2362 48.7685 43.1726 49 41.7425 49V53C43.5793 53 45.2643 52.7059 46.718 52.0208L45.0126 48.4025ZM41.7425 49H32.4207V53H41.7425V49ZM37.0336 49.2287H40.7943V45.2287H37.0336V49.2287ZM40.7943 49.2287C42.2563 49.2287 43.7633 48.9643 44.8853 48.0316L42.3283 44.9556C42.2713 45.003 41.9034 45.2287 40.7943 45.2287V49.2287ZM44.8962 48.0225C45.9702 47.1167 46.491 45.8795 46.491 44.5121H42.491C42.491 44.7924 42.4223 44.8762 42.3174 44.9647L44.8962 48.0225ZM46.491 44.5121C46.491 43.5721 46.2595 42.6614 45.7458 41.8471L42.3626 43.9811C42.4314 44.09 42.491 44.2446 42.491 44.5121H46.491ZM45.7458 41.8471C45.2364 41.0394 44.5232 40.4381 43.6832 40.0292L41.9323 43.6256C42.1719 43.7423 42.2897 43.8654 42.3626 43.9811L45.7458 41.8471ZM43.6926 40.0338C42.826 39.6062 41.8733 39.4332 40.9008 39.4332V43.4332C41.4057 43.4332 41.7243 43.523 41.9229 43.621L43.6926 40.0338ZM40.9008 39.4332H37.0336V43.4332H40.9008V39.4332ZM35.0336 41.4332V47.2287H39.0336V41.4332H35.0336ZM37.0336 40.3118H40.4534V36.3118H37.0336V40.3118ZM40.4534 40.3118C41.3187 40.3118 42.167 40.1605 42.9563 39.8059L41.317 36.1572C41.1262 36.2429 40.8523 36.3118 40.4534 36.3118V40.3118ZM42.9681 39.8005C43.7623 39.4374 44.4472 38.8945 44.9549 38.1582L41.6621 35.8873C41.6017 35.9749 41.5053 36.0711 41.3051 36.1626L42.9681 39.8005ZM44.9417 38.1772C45.5041 37.3816 45.7453 36.4705 45.7453 35.5419H41.7453C41.7453 35.7639 41.6953 35.84 41.6754 35.8683L44.9417 38.1772ZM45.7453 35.5419C45.7453 34.2141 45.2424 33.0092 44.2084 32.1191L41.5989 35.1507C41.6871 35.2266 41.7453 35.293 41.7453 35.5419H45.7453ZM44.2179 32.1274C43.1791 31.2217 41.8559 30.9105 40.5386 30.9105V34.9105C41.2668 34.9105 41.5203 35.0823 41.5894 35.1425L44.2179 32.1274ZM40.5386 30.9105H37.0336V34.9105H40.5386V30.9105ZM35.0336 32.9105V38.3118H39.0336V32.9105H35.0336ZM71.5054 36.8203V38.8203H73.7552L73.4916 36.586L71.5054 36.8203ZM66.8392 36.8203L64.8589 37.0999L65.1017 38.8203H66.8392V36.8203ZM66.3172 35.2116L64.5664 36.1785L64.5726 36.1897L66.3172 35.2116ZM65.3051 33.9972L64.046 35.551L64.046 35.551L65.3051 33.9972ZM63.8776 33.2301L63.2451 35.1275L63.2526 35.13L63.8776 33.2301ZM59.1901 33.8054L60.293 35.4739L60.3027 35.4673L59.1901 33.8054ZM57.2405 36.2344L59.0737 37.0341L59.0756 37.0296L57.2405 36.2344ZM57.2405 44.0114L55.4073 44.8111L55.4119 44.8214L57.2405 44.0114ZM59.2007 46.4084L58.1178 48.0898L58.1178 48.0898L59.2007 46.4084ZM63.8243 46.973L63.2379 45.0609L63.2307 45.0631L63.8243 46.973ZM65.2412 46.2592L66.45 47.8526L66.4586 47.8461L66.4672 47.8394L65.2412 46.2592ZM66.2639 45.098L64.5561 44.0573L64.5501 44.0671L64.5442 44.0769L66.2639 45.098ZM66.8392 43.5426L66.8484 41.5426L65.1733 41.535L64.8719 43.1827L66.8392 43.5426ZM71.5054 43.5639L73.491 43.8033L73.7598 41.5742L71.5145 41.5639L71.5054 43.5639ZM70.5999 46.4616L68.8248 45.5402L68.8221 45.5454L70.5999 46.4616ZM68.6716 48.9439L70.0117 50.4285L70.0124 50.4279L68.6716 48.9439ZM65.7952 50.6697L66.5027 52.5404L66.5092 52.538L65.7952 50.6697ZM56.8144 49.9773L55.8152 51.7098L55.8186 51.7118L56.8144 49.9773ZM53.1922 46.1527L51.4233 47.0861L51.4265 47.0919L53.1922 46.1527ZM53.2135 34.0185L54.9761 34.9635L54.9761 34.9635L53.2135 34.0185ZM56.857 30.2045L57.8467 31.9425L57.8527 31.9391L56.857 30.2045ZM65.5502 29.4162L64.9252 31.316L64.9289 31.3173L65.5502 29.4162ZM68.4372 30.9716L67.175 32.523L67.183 32.5295L68.4372 30.9716ZM70.4827 33.4538L68.7201 34.399L68.7254 34.4089L70.4827 33.4538ZM71.5054 34.8203H66.8392V38.8203H71.5054V34.8203ZM68.8196 36.5407C68.7043 35.7244 68.4609 34.9457 68.0618 34.2336L64.5726 36.1897C64.699 36.4151 64.8037 36.7089 64.8589 37.0999L68.8196 36.5407ZM68.068 34.2448C67.6839 33.5493 67.1815 32.9434 66.5643 32.4433L64.046 35.551C64.2527 35.7185 64.425 35.9223 64.5664 36.1785L68.068 34.2448ZM66.5643 32.4433C65.9506 31.946 65.2563 31.5782 64.5025 31.3303L63.2526 35.13C63.5784 35.2371 63.8358 35.3808 64.046 35.551L66.5643 32.4433ZM64.51 31.3327C63.7518 31.08 62.9569 30.9638 62.1411 30.9638V34.9638C62.5752 34.9638 62.9381 35.0251 63.2451 35.1275L64.51 31.3327ZM62.1411 30.9638C60.6648 30.9638 59.2833 31.3361 58.0774 32.1435L60.3027 35.4673C60.773 35.1525 61.3588 34.9638 62.1411 34.9638V30.9638ZM58.0872 32.137C56.8775 32.9366 55.9967 34.0747 55.4054 35.4392L59.0756 37.0296C59.4076 36.2634 59.8265 35.7822 60.2929 35.4738L58.0872 32.137ZM55.4073 35.4347C54.8072 36.8104 54.548 38.3843 54.548 40.0909H58.548C58.548 38.7719 58.7505 37.7748 59.0737 37.0341L55.4073 35.4347ZM54.548 40.0909C54.548 41.8313 54.8045 43.4293 55.4073 44.8111L59.0737 43.2117C58.7532 42.477 58.548 41.4613 58.548 40.0909H54.548ZM55.4119 44.8214C56.0127 46.1778 56.9012 47.3062 58.1178 48.0898L60.2837 44.727C59.8242 44.431 59.4058 43.9614 59.0691 43.2014L55.4119 44.8214ZM58.1178 48.0898C59.312 48.859 60.6657 49.218 62.1091 49.218V45.218C61.3508 45.218 60.7656 45.0373 60.2837 44.7269L58.1178 48.0898ZM62.1091 49.218C62.9039 49.218 63.6782 49.1128 64.4179 48.8829L63.2307 45.0631C62.9193 45.1599 62.5501 45.218 62.1091 45.218V49.218ZM64.4107 48.8851C65.1504 48.6583 65.8369 48.3177 66.45 47.8526L64.0324 44.6659C63.8217 44.8257 63.5635 44.9611 63.2379 45.0609L64.4107 48.8851ZM66.4672 47.8394C67.0801 47.3639 67.5875 46.7862 67.9836 46.1191L64.5442 44.0769C64.4006 44.3189 64.2262 44.5154 64.0152 44.6791L66.4672 47.8394ZM67.9718 46.1388C68.3898 45.4529 68.6609 44.6988 68.8066 43.9025L64.8719 43.1827C64.8045 43.5512 64.6921 43.8341 64.5561 44.0573L67.9718 46.1388ZM66.8301 45.5426L71.4963 45.5639L71.5145 41.5639L66.8484 41.5426L66.8301 45.5426ZM69.5198 43.3245C69.4289 44.0785 69.2016 44.8142 68.8248 45.5402L72.375 47.3831C72.964 46.2483 73.3405 45.0522 73.491 43.8033L69.5198 43.3245ZM68.8221 45.5454C68.462 46.244 67.971 46.8815 67.3308 47.4599L70.0124 50.4279C70.9916 49.5432 71.786 48.5259 72.3777 47.3779L68.8221 45.5454ZM67.3315 47.4593C66.7303 48.0019 65.9897 48.4543 65.0812 48.8015L66.5092 52.538C67.8308 52.0329 69.0078 51.3347 70.0117 50.4285L67.3315 47.4593ZM65.0877 48.7991C64.2427 49.1186 63.2348 49.2983 62.0345 49.2983V53.2983C63.6325 53.2983 65.1318 53.0589 66.5027 52.5404L65.0877 48.7991ZM62.0345 49.2983C60.402 49.2983 59.0115 48.9324 57.8101 48.2428L55.8186 51.7118C57.6854 52.7835 59.775 53.2983 62.0345 53.2983V49.2983ZM57.8136 48.2448C56.6351 47.5651 55.6829 46.5764 54.9579 45.2135L51.4265 47.0919C52.477 49.067 53.9397 50.6281 55.8152 51.7098L57.8136 48.2448ZM54.9611 45.2193C54.2663 43.9026 53.8712 42.2196 53.8712 40.0909H49.8712C49.8712 42.7065 50.3568 45.0647 51.4233 47.0861L54.9611 45.2193ZM53.8712 40.0909C53.8712 37.9585 54.272 36.2767 54.9761 34.9635L51.4509 33.0734C50.3652 35.0983 49.8712 37.4648 49.8712 40.0909H53.8712ZM54.9761 34.9635C55.7066 33.6011 56.6637 32.6162 57.8467 31.9425L55.8673 28.4666C53.9821 29.5401 52.5102 31.0977 51.4509 33.0734L54.9761 34.9635ZM57.8527 31.9391C59.0586 31.2468 60.436 30.8835 62.0345 30.8835V26.8835C59.7978 26.8835 57.7236 27.4009 55.8612 28.47L57.8527 31.9391ZM62.0345 30.8835C63.1101 30.8835 64.0686 31.0343 64.9252 31.316L66.1751 27.5163C64.8726 27.0879 63.4874 26.8835 62.0345 26.8835V30.8835ZM64.9289 31.3173C65.796 31.6006 66.5382 32.0049 67.1751 32.523L69.6994 29.4202C68.6601 28.5746 67.4776 27.942 66.1714 27.5151L64.9289 31.3173ZM67.183 32.5295C67.8052 33.0304 68.3169 33.647 68.7201 34.399L72.2453 32.5087C71.5974 31.3005 70.7454 30.2622 69.6914 29.4137L67.183 32.5295ZM68.7254 34.4089C69.1207 35.1362 69.3957 36.0077 69.5192 37.0546L73.4916 36.586C73.3169 35.1045 72.91 33.7317 72.2399 32.4988L68.7254 34.4089Z" fill="black" mask="url(#path-8-outside-1_126_1157)"/>
</g>
<defs>
<filter id="filter0_di_126_1157" x="7.79688" y="28.8835" width="64.7085" height="24.4148" filterUnits="userSpaceOnUse" color-interpolation-filters="sRGB">
<feFlood flood-opacity="0" result="BackgroundImageFix"/>
<feColorMatrix in="SourceAlpha" type="matrix" values="0 0 0 0 0 0 0 0 0 0 0 0 0 0 0 0 0 0 127 0" result="hardAlpha"/>
<feOffset dy="1"/>
<feGaussianBlur stdDeviation="0.5"/>
<feComposite in2="hardAlpha" operator="out"/>
<feColorMatrix type="matrix" values="0 0 0 0 0 0 0 0 0 0 0 0 0 0 0 0 0 0 0.25 0"/>
<feBlend mode="normal" in2="BackgroundImageFix" result="effect1_dropShadow_126_1157"/>
<feBlend mode="normal" in="SourceGraphic" in2="effect1_dropShadow_126_1157" result="shape"/>
<feColorMatrix in="SourceAlpha" type="matrix" values="0 0 0 0 0 0 0 0 0 0 0 0 0 0 0 0 0 0 127 0" result="hardAlpha"/>
<feOffset dx="2" dy="2"/>
<feGaussianBlur stdDeviation="0.5"/>
<feComposite in2="hardAlpha" operator="arithmetic" k2="-1" k3="1"/>
<feColorMatrix type="matrix" values="0 0 0 0 0 0 0 0 0 0 0 0 0 0 0 0 0 0 0.25 0"/>
<feBlend mode="normal" in2="shape" result="effect2_innerShadow_126_1157"/>
</filter>
<linearGradient id="paint0_linear_126_1157" x1="40.5" y1="3" x2="40.5" y2="78" gradientUnits="userSpaceOnUse">
<stop stop-color="#DDD8B8"/>
<stop offset="1" stop-color="#B4B4B4"/>
</linearGradient>
<linearGradient id="paint1_linear_126_1157" x1="78" y1="40.5" x2="3" y2="40.5" gradientUnits="userSpaceOnUse">
<stop stop-color="white" stop-opacity="0"/>
<stop offset="1" stop-color="#DDD8B8"/>
</linearGradient>
<linearGradient id="paint2_linear_126_1157" x1="20.5925" y1="37.5" x2="0" y2="37.5" gradientUnits="userSpaceOnUse">
<stop stop-color="white" stop-opacity="0"/>
<stop offset="1" stop-color="#DDD8B8"/>
</linearGradient>
<linearGradient id="paint3_linear_126_1157" x1="23.0769" y1="37.5" x2="1.11181e-06" y2="37.5" gradientUnits="userSpaceOnUse">
<stop stop-color="white" stop-opacity="0"/>
<stop offset="1" stop-color="white"/>
</linearGradient>
<linearGradient id="paint4_linear_126_1157" x1="22.5524" y1="37.5" x2="1.04928e-06" y2="37.5" gradientUnits="userSpaceOnUse">
<stop stop-color="white" stop-opacity="0"/>
<stop offset="1" stop-color="white"/>
</linearGradient>
<linearGradient id="paint5_linear_126_1157" x1="68.9306" y1="34.4653" x2="-1.50653e-06" y2="34.4653" gradientUnits="userSpaceOnUse">
<stop stop-color="#D9D9D9"/>
<stop offset="1" stop-color="#DDD8B8"/>
</linearGradient>
<linearGradient id="paint6_linear_126_1157" x1="8.96497" y1="34.4653" x2="-15.5393" y2="34.4653" gradientUnits="userSpaceOnUse">
<stop stop-color="white" stop-opacity="0"/>
<stop offset="1" stop-color="white"/>
</linearGradient>
</defs>
</svg>
