<svg width="81" height="81" viewBox="0 0 81 81" fill="none" xmlns="http://www.w3.org/2000/svg">
<rect x="1.75" y="1.75" width="77.5" height="77.5" rx="16.25" fill="#DDD8B8" stroke="url(#paint0_linear_126_1157)" stroke-width="2.5"/>
<rect x="3" y="3" width="75" height="75" rx="15" fill="url(#paint1_linear_126_1157)"/>
<rect width="75" height="75" rx="15" transform="matrix(-1 0 0 1 78 3)" fill="url(#paint2_linear_126_1157)"/>
<rect width="75" height="75" rx="15" transform="matrix(-4.37114e-08 1 1 4.37114e-08 3 3)" fill="url(#paint3_linear_126_1157)"/>
<rect width="75" height="75" rx="15" transform="matrix(4.37114e-08 -1 -1 -4.37114e-08 78 78)" fill="url(#paint4_linear_126_1157)"/>
<rect width="68.9306" height="68.9306" rx="12" transform="matrix(4.37114e-08 -1 -1 -4.37114e-08 74.9648 74.9653)" fill="url(#paint5_linear_126_1157)"/>
<rect width="68.9306" height="68.9306" rx="12" transform="matrix(4.37114e-08 -1 -1 -4.37114e-08 74.9648 74.9653)" fill="url(#paint6_linear_126_1157)"/>
<g filter="url(#filter0_di_126_1157)">
<path d="M13.74 51H8.79679L16.3287 29.1818H22.2733L29.7947 51H24.8515L19.3863 34.1676H19.2158L13.74 51ZM13.431 42.424H25.1072V46.0249H13.431V42.424ZM32.4207 51V29.1818H41.1565C42.7616 29.1818 44.1004 29.4197 45.1729 29.8956C46.2453 30.3714 47.0514 31.032 47.5912 31.8771C48.1309 32.7152 48.4008 33.6811 48.4008 34.7749C48.4008 35.6271 48.2304 36.3764 47.8895 37.0227C47.5486 37.6619 47.0798 38.1875 46.4832 38.5994C45.8937 39.0043 45.219 39.2919 44.4591 39.4624V39.6754C45.29 39.7109 46.0677 39.9453 46.7922 40.3786C47.5237 40.8118 48.1167 41.419 48.5713 42.2003C49.0258 42.9744 49.2531 43.8977 49.2531 44.9702C49.2531 46.1278 48.9655 47.1612 48.3902 48.0703C47.822 48.9723 46.9804 49.6861 45.8653 50.2116C44.7503 50.7372 43.376 51 41.7425 51H32.4207ZM37.0336 47.2287H40.7943C42.0798 47.2287 43.0173 46.9837 43.6068 46.4936C44.1963 45.9964 44.491 45.3359 44.491 44.5121C44.491 43.9084 44.3454 43.3757 44.0542 42.9141C43.7631 42.4524 43.3476 42.0902 42.8078 41.8274C42.2751 41.5646 41.6395 41.4332 40.9008 41.4332H37.0336V47.2287ZM37.0336 38.3118H40.4534C41.0855 38.3118 41.6466 38.2017 42.1366 37.9815C42.6338 37.7543 43.0244 37.4347 43.3085 37.0227C43.5997 36.6108 43.7453 36.1172 43.7453 35.5419C43.7453 34.7536 43.4648 34.1179 42.9037 33.6349C42.3497 33.152 41.5613 32.9105 40.5386 32.9105H37.0336V38.3118ZM71.5054 36.8203H66.8392C66.754 36.2166 66.58 35.6804 66.3172 35.2116C66.0544 34.7358 65.7171 34.331 65.3051 33.9972C64.8932 33.6634 64.4173 33.4077 63.8776 33.2301C63.3449 33.0526 62.7661 32.9638 62.1411 32.9638C61.0118 32.9638 60.0281 33.2443 59.1901 33.8054C58.352 34.3594 57.7021 35.169 57.2405 36.2344C56.7789 37.2926 56.548 38.5781 56.548 40.0909C56.548 41.6463 56.7789 42.9531 57.2405 44.0114C57.7093 45.0696 58.3627 45.8686 59.2007 46.4084C60.0388 46.9482 61.0083 47.218 62.1091 47.218C62.727 47.218 63.2987 47.1364 63.8243 46.973C64.357 46.8097 64.8293 46.5717 65.2412 46.2592C65.6531 45.9396 65.9941 45.5526 66.2639 45.098C66.5409 44.6435 66.7327 44.125 66.8392 43.5426L71.5054 43.5639C71.3847 44.5653 71.0828 45.5312 70.5999 46.4616C70.124 47.3849 69.4813 48.2124 68.6716 48.9439C67.8691 49.6683 66.9102 50.2436 65.7952 50.6697C64.6872 51.0888 63.4337 51.2983 62.0345 51.2983C60.0885 51.2983 58.3485 50.858 56.8144 49.9773C55.2874 49.0966 54.08 47.8217 53.1922 46.1527C52.3115 44.4837 51.8712 42.4631 51.8712 40.0909C51.8712 37.7116 52.3186 35.6875 53.2135 34.0185C54.1084 32.3494 55.3229 31.0781 56.857 30.2045C58.3911 29.3239 60.1169 28.8835 62.0345 28.8835C63.2987 28.8835 64.4706 29.0611 65.5502 29.4162C66.6368 29.7713 67.5992 30.2898 68.4372 30.9716C69.2753 31.6463 69.9571 32.4737 70.4827 33.4538C71.0154 34.4339 71.3563 35.5561 71.5054 36.8203Z" fill="white"/>
</g>
<defs>
<filter id="filter0_di_126_1157" x="7.79688" y="28.8835" width="64.7085" height="24.4148" filterUnits="userSpaceOnUse" color-interpolation-filters="sRGB">
<feFlood flood-opacity="0" result="BackgroundImageFix"/>
<feColorMatrix in="SourceAlpha" type="matrix" values="0 0 0 0 0 0 0 0 0 0 0 0 0 0 0 0 0 0 127 0" result="hardAlpha"/>
<feOffset dy="1"/>
<feGaussianBlur stdDeviation="0.5"/>
<feComposite in2="hardAlpha" operator="out"/>
<feColorMatrix type="matrix" values="0 0 0 0 0 0 0 0 0 0 0 0 0 0 0 0 0 0 0.25 0"/>
<feBlend mode="normal" in2="BackgroundImageFix" result="effect1_dropShadow_126_1157"/>
<feBlend mode="normal" in="SourceGraphic" in2="effect1_dropShadow_126_1157" result="shape"/>
<feColorMatrix in="SourceAlpha" type="matrix" values="0 0 0 0 0 0 0 0 0 0 0 0 0 0 0 0 0 0 127 0" result="hardAlpha"/>
<feOffset dx="1" dy="1"/>
<feGaussianBlur stdDeviation="0.5"/>
<feComposite in2="hardAlpha" operator="arithmetic" k2="-1" k3="1"/>
<feColorMatrix type="matrix" values="0 0 0 0 0 0 0 0 0 0 0 0 0 0 0 0 0 0 0.25 0"/>
<feBlend mode="normal" in2="shape" result="effect2_innerShadow_126_1157"/>
</filter>
<linearGradient id="paint0_linear_126_1157" x1="40.5" y1="3" x2="40.5" y2="78" gradientUnits="userSpaceOnUse">
<stop stop-color="#DDD8B8"/>
<stop offset="1" stop-color="#B4B4B4"/>
</linearGradient>
<linearGradient id="paint1_linear_126_1157" x1="78" y1="40.5" x2="3" y2="40.5" gradientUnits="userSpaceOnUse">
<stop stop-color="white" stop-opacity="0"/>
<stop offset="1" stop-color="#DDD8B8"/>
</linearGradient>
<linearGradient id="paint2_linear_126_1157" x1="20.5925" y1="37.5" x2="0" y2="37.5" gradientUnits="userSpaceOnUse">
<stop stop-color="white" stop-opacity="0"/>
<stop offset="1" stop-color="#DDD8B8"/>
</linearGradient>
<linearGradient id="paint3_linear_126_1157" x1="23.0769" y1="37.5" x2="1.11181e-06" y2="37.5" gradientUnits="userSpaceOnUse">
<stop stop-color="white" stop-opacity="0"/>
<stop offset="1" stop-color="white"/>
</linearGradient>
<linearGradient id="paint4_linear_126_1157" x1="22.5524" y1="37.5" x2="1.04928e-06" y2="37.5" gradientUnits="userSpaceOnUse">
<stop stop-color="white" stop-opacity="0"/>
<stop offset="1" stop-color="white"/>
</linearGradient>
<linearGradient id="paint5_linear_126_1157" x1="68.9306" y1="34.4653" x2="-1.50653e-06" y2="34.4653" gradientUnits="userSpaceOnUse">
<stop stop-color="#D9D9D9"/>
<stop offset="1" stop-color="#DDD8B8"/>
</linearGradient>
<linearGradient id="paint6_linear_126_1157" x1="8.96497" y1="34.4653" x2="-15.5393" y2="34.4653" gradientUnits="userSpaceOnUse">
<stop stop-color="white" stop-opacity="0"/>
<stop offset="1" stop-color="white"/>
</linearGradient>
</defs>
</svg>
