<svg width="75" height="77" viewBox="0 0 75 77" fill="none" xmlns="http://www.w3.org/2000/svg">
<rect width="75" height="75" rx="12" fill="#DDD8B8"/>
<path d="M8.13398 45L15.8965 24.375H19.459L27.2215 45H23.509L21.409 39.5625H13.7965L11.734 45H8.13398ZM14.959 36.2625H20.209L17.584 28.5375L14.959 36.2625ZM30.0773 45V24.375H37.0898C39.7648 24.375 41.6148 24.9375 42.6398 26.0625C43.6898 27.1625 44.2148 28.3875 44.2148 29.7375C44.2148 31.6875 43.3148 33.2125 41.5148 34.3125C42.8898 34.5875 43.9523 35.2125 44.7023 36.1875C45.4773 37.1625 45.8648 38.225 45.8648 39.375C45.8648 40.9 45.1773 42.225 43.8023 43.35C42.4523 44.45 40.0523 45 36.6023 45H30.0773ZM39.7148 28.2375C39.0898 27.7875 37.9898 27.5625 36.4148 27.5625H33.7523V32.85H36.4148C37.9148 32.85 38.9898 32.6375 39.6398 32.2125C40.3148 31.7875 40.6523 31.125 40.6523 30.225C40.6523 29.35 40.3398 28.6875 39.7148 28.2375ZM40.7648 36.7125C39.8148 36.1875 38.2773 35.925 36.1523 35.925L33.7523 35.9625V41.775H36.1523C38.2273 41.775 39.7523 41.575 40.7273 41.175C41.7273 40.775 42.2273 40.0375 42.2273 38.9625C42.2273 37.9625 41.7398 37.2125 40.7648 36.7125ZM53.6965 25.575C55.3715 24.65 57.309 24.1875 59.509 24.1875C61.509 24.1875 63.434 24.575 65.284 25.35L65.884 25.575L64.6465 28.4625L64.084 28.275C63.084 27.9 62.2465 27.675 61.5715 27.6C60.8965 27.5 60.184 27.45 59.434 27.45C57.984 27.45 56.709 27.775 55.609 28.425C54.534 29.05 53.709 29.9125 53.134 31.0125C52.559 32.1125 52.2715 33.325 52.2715 34.65C52.2715 36.85 52.9465 38.625 54.2965 39.975C55.6715 41.3 57.559 41.9625 59.959 41.9625C61.184 41.9625 62.6715 41.6375 64.4215 40.9875L64.9465 40.7625L66.1465 43.725L65.6215 43.95C64.4215 44.425 63.334 44.775 62.359 45C61.384 45.225 60.3715 45.3375 59.3215 45.3375C57.1215 45.3375 55.1965 44.8625 53.5465 43.9125C51.9215 42.9625 50.6715 41.675 49.7965 40.05C48.9465 38.425 48.5215 36.6375 48.5215 34.6875C48.5215 32.6875 48.9715 30.9 49.8715 29.325C50.7715 27.725 52.0465 26.475 53.6965 25.575Z" fill="black"/>
</svg>
