<svg width="81" height="81" viewBox="0 0 81 81" fill="none" xmlns="http://www.w3.org/2000/svg">
<rect x="1.75" y="1.75" width="77.5" height="77.5" rx="16.25" fill="#DDD8B8" stroke="url(#paint0_linear_130_26)" stroke-width="2.5"/>
<rect x="3" y="3" width="75" height="75" rx="15" fill="url(#paint1_linear_130_26)"/>
<rect width="75" height="75" rx="15" transform="matrix(-1 0 0 1 78 3)" fill="url(#paint2_linear_130_26)"/>
<rect width="75" height="75" rx="15" transform="matrix(-4.37114e-08 1 1 4.37114e-08 3 3)" fill="url(#paint3_linear_130_26)"/>
<rect width="75" height="75" rx="15" transform="matrix(4.37114e-08 -1 -1 -4.37114e-08 78 78)" fill="url(#paint4_linear_130_26)"/>
<rect width="68.9306" height="68.9306" rx="12" transform="matrix(4.37114e-08 -1 -1 -4.37114e-08 74.9648 74.9653)" fill="url(#paint5_linear_130_26)"/>
<rect width="68.9306" height="68.9306" rx="12" transform="matrix(4.37114e-08 -1 -1 -4.37114e-08 74.9648 74.9653)" fill="url(#paint6_linear_130_26)"/>
<g filter="url(#filter0_di_130_26)">
<path d="M19.6747 45.4047L28.5 40.3094L37.3253 45.4047V55.5953L28.5 60.6906L19.6747 55.5953V45.4047Z" fill="white" stroke="black" stroke-width="4"/>
<path d="M43.6747 45.4047L52.5 40.3094L61.3253 45.4047V55.5953L52.5 60.6906L43.6747 55.5953V45.4047Z" fill="white" stroke="black" stroke-width="4"/>
<path d="M31.6747 25.4047L40.5 20.3094L49.3253 25.4047V35.5953L40.5 40.6906L31.6747 35.5953V25.4047Z" fill="white" stroke="black" stroke-width="4"/>
</g>
<defs>
<filter id="filter0_di_130_26" x="16.6748" y="18" width="47.6504" height="47" filterUnits="userSpaceOnUse" color-interpolation-filters="sRGB">
<feFlood flood-opacity="0" result="BackgroundImageFix"/>
<feColorMatrix in="SourceAlpha" type="matrix" values="0 0 0 0 0 0 0 0 0 0 0 0 0 0 0 0 0 0 127 0" result="hardAlpha"/>
<feOffset dy="1"/>
<feGaussianBlur stdDeviation="0.5"/>
<feComposite in2="hardAlpha" operator="out"/>
<feColorMatrix type="matrix" values="0 0 0 0 0 0 0 0 0 0 0 0 0 0 0 0 0 0 0.25 0"/>
<feBlend mode="normal" in2="BackgroundImageFix" result="effect1_dropShadow_130_26"/>
<feBlend mode="normal" in="SourceGraphic" in2="effect1_dropShadow_130_26" result="shape"/>
<feColorMatrix in="SourceAlpha" type="matrix" values="0 0 0 0 0 0 0 0 0 0 0 0 0 0 0 0 0 0 127 0" result="hardAlpha"/>
<feOffset dx="3" dy="4"/>
<feGaussianBlur stdDeviation="0.5"/>
<feComposite in2="hardAlpha" operator="arithmetic" k2="-1" k3="1"/>
<feColorMatrix type="matrix" values="0 0 0 0 0 0 0 0 0 0 0 0 0 0 0 0 0 0 0.25 0"/>
<feBlend mode="normal" in2="shape" result="effect2_innerShadow_130_26"/>
</filter>
<linearGradient id="paint0_linear_130_26" x1="40.5" y1="3" x2="40.5" y2="78" gradientUnits="userSpaceOnUse">
<stop stop-color="#DDD8B8"/>
<stop offset="1" stop-color="#B4B4B4"/>
</linearGradient>
<linearGradient id="paint1_linear_130_26" x1="78" y1="40.5" x2="3" y2="40.5" gradientUnits="userSpaceOnUse">
<stop stop-color="white" stop-opacity="0"/>
<stop offset="1" stop-color="#DDD8B8"/>
</linearGradient>
<linearGradient id="paint2_linear_130_26" x1="20.5925" y1="37.5" x2="0" y2="37.5" gradientUnits="userSpaceOnUse">
<stop stop-color="white" stop-opacity="0"/>
<stop offset="1" stop-color="#DDD8B8"/>
</linearGradient>
<linearGradient id="paint3_linear_130_26" x1="23.0769" y1="37.5" x2="1.11181e-06" y2="37.5" gradientUnits="userSpaceOnUse">
<stop stop-color="white" stop-opacity="0"/>
<stop offset="1" stop-color="white"/>
</linearGradient>
<linearGradient id="paint4_linear_130_26" x1="22.5524" y1="37.5" x2="1.04928e-06" y2="37.5" gradientUnits="userSpaceOnUse">
<stop stop-color="white" stop-opacity="0"/>
<stop offset="1" stop-color="white"/>
</linearGradient>
<linearGradient id="paint5_linear_130_26" x1="68.9306" y1="34.4653" x2="-1.50653e-06" y2="34.4653" gradientUnits="userSpaceOnUse">
<stop stop-color="#D9D9D9"/>
<stop offset="1" stop-color="#DDD8B8"/>
</linearGradient>
<linearGradient id="paint6_linear_130_26" x1="8.96497" y1="34.4653" x2="-15.5393" y2="34.4653" gradientUnits="userSpaceOnUse">
<stop stop-color="white" stop-opacity="0"/>
<stop offset="1" stop-color="white"/>
</linearGradient>
</defs>
</svg>
