<svg width="75" height="81" viewBox="0 0 75 81" fill="none" xmlns="http://www.w3.org/2000/svg">
<rect width="75" height="75" rx="12" fill="#DDD8B8"/>
<path d="M59.4142 39.4142C60.1953 38.6332 60.1953 37.3668 59.4142 36.5858L46.6863 23.8579C45.9052 23.0768 44.6389 23.0768 43.8579 23.8579C43.0768 24.6389 43.0768 25.9052 43.8579 26.6863L55.1716 38L43.8579 49.3137C43.0768 50.0948 43.0768 51.3611 43.8579 52.1421C44.6389 52.9232 45.9052 52.9232 46.6863 52.1421L59.4142 39.4142ZM18 40H58V36H18V40Z" fill="black"/>
<path d="M17.9533 35L25.7158 14.375H29.2783L37.0408 35H33.3283L31.2283 29.5625H23.6158L21.5533 35H17.9533ZM24.7783 26.2625H30.0283L27.4033 18.5375L24.7783 26.2625Z" fill="black"/>
<path d="M20.1887 44.675V41.375H35.4512V43.5875L24.4262 58.6625H35.5262V62H19.4762V59.7125L30.2012 44.675H20.1887Z" fill="black"/>
</svg>
