<svg width="38" height="38" viewBox="0 0 38 38" fill="none" xmlns="http://www.w3.org/2000/svg">
<rect x="1.75" y="1.75" width="34.5" height="34.5" rx="16.25" fill="#DDD8B8" stroke="url(#paint0_linear_127_1208)" stroke-width="2.5"/>
<rect x="3" y="3" width="32" height="32" rx="15" fill="url(#paint1_linear_127_1208)"/>
<rect width="32" height="32" rx="15" transform="matrix(-1 0 0 1 35 3)" fill="url(#paint2_linear_127_1208)"/>
<rect width="32" height="32" rx="15" transform="matrix(-4.37114e-08 1 1 4.37114e-08 3 3)" fill="url(#paint3_linear_127_1208)"/>
<rect width="32" height="32" rx="15" transform="matrix(4.37114e-08 -1 -1 -4.37114e-08 35 35)" fill="url(#paint4_linear_127_1208)"/>
<rect width="29.4104" height="29.4104" rx="12" transform="matrix(4.37114e-08 -1 -1 -4.37114e-08 33.7051 33.7053)" fill="url(#paint5_linear_127_1208)"/>
<rect width="29.4104" height="29.4104" rx="12" transform="matrix(4.37114e-08 -1 -1 -4.37114e-08 33.7051 33.7053)" fill="url(#paint6_linear_127_1208)"/>
<g filter="url(#filter0_di_127_1208)">
<path d="M21 12.837C21 12.482 21.186 12.161 21.401 11.878C21.622 11.588 21.75 11.244 21.75 10.875C21.75 9.839 20.743 9 19.5 9C18.257 9 17.25 9.84 17.25 10.875C17.25 11.244 17.378 11.588 17.599 11.878C17.814 12.161 18 12.482 18 12.837C18.0004 12.9227 17.9836 13.0077 17.9506 13.0868C17.9175 13.166 17.8689 13.2376 17.8077 13.2976C17.7464 13.3576 17.6737 13.4046 17.5938 13.436C17.514 13.4673 17.4287 13.4823 17.343 13.48C15.9517 13.4399 14.5627 13.3398 13.18 13.18C13.366 14.793 13.473 16.43 13.495 18.087C13.4959 18.1739 13.4796 18.2601 13.4469 18.3407C13.4142 18.4212 13.3659 18.4944 13.3047 18.5561C13.2434 18.6178 13.1706 18.6667 13.0903 18.7C13.01 18.7333 12.9239 18.7503 12.837 18.75C12.482 18.75 12.161 18.564 11.878 18.349C11.5914 18.1251 11.2387 18.0024 10.875 18C9.839 18 9 19.007 9 20.25C9 21.493 9.84 22.5 10.875 22.5C11.244 22.5 11.588 22.372 11.878 22.151C12.161 21.936 12.482 21.75 12.837 21.75C13.147 21.75 13.392 22.01 13.369 22.32C13.2446 24.0155 13.0303 25.7032 12.727 27.376C14.245 27.566 15.785 27.685 17.343 27.73C17.4287 27.7323 17.514 27.7173 17.5938 27.686C17.6737 27.6547 17.7464 27.6076 17.8077 27.5476C17.8689 27.4876 17.9175 27.416 17.9506 27.3368C17.9836 27.2577 18.0004 27.1727 18 27.087C18 26.732 17.814 26.411 17.599 26.128C17.3751 25.8414 17.2524 25.4887 17.25 25.125C17.25 24.09 18.258 23.25 19.5 23.25C20.743 23.25 21.75 24.09 21.75 25.125C21.75 25.494 21.622 25.838 21.401 26.128C21.186 26.411 21.001 26.732 21.001 27.087C21.001 27.42 21.278 27.686 21.611 27.667C23.4305 27.56 25.2424 27.3497 27.038 27.037C27.3097 25.4752 27.5039 23.901 27.62 22.32C27.6252 22.2469 27.6153 22.1736 27.5909 22.1045C27.5664 22.0354 27.528 21.9722 27.4779 21.9186C27.4279 21.8651 27.3673 21.8225 27.3001 21.7935C27.2328 21.7645 27.1603 21.7497 27.087 21.75C26.732 21.75 26.411 21.936 26.128 22.151C25.838 22.372 25.494 22.5 25.125 22.5C24.09 22.5 23.25 21.493 23.25 20.25C23.25 19.007 24.09 18 25.125 18C25.495 18 25.838 18.128 26.128 18.349C26.411 18.564 26.732 18.75 27.088 18.75C27.1749 18.7503 27.261 18.7333 27.3413 18.7C27.4216 18.6667 27.4944 18.6178 27.5557 18.5561C27.6169 18.4944 27.6652 18.4212 27.6979 18.3407C27.7306 18.2601 27.7469 18.1739 27.746 18.087C27.722 16.2949 27.5984 14.5054 27.376 12.727C25.49 13.069 23.566 13.301 21.61 13.416C21.5313 13.4204 21.4525 13.4086 21.3785 13.3814C21.3045 13.3542 21.2369 13.3121 21.1797 13.2578C21.1226 13.2034 21.0772 13.138 21.0463 13.0655C21.0153 12.9929 20.9996 12.9158 21 12.837Z" stroke="black" stroke-width="1.5" stroke-linecap="round" stroke-linejoin="round" shape-rendering="crispEdges"/>
</g>
<defs>
<filter id="filter0_di_127_1208" x="7.25" y="8.25" width="22.2461" height="22.2302" filterUnits="userSpaceOnUse" color-interpolation-filters="sRGB">
<feFlood flood-opacity="0" result="BackgroundImageFix"/>
<feColorMatrix in="SourceAlpha" type="matrix" values="0 0 0 0 0 0 0 0 0 0 0 0 0 0 0 0 0 0 127 0" result="hardAlpha"/>
<feOffset dy="1"/>
<feGaussianBlur stdDeviation="0.5"/>
<feComposite in2="hardAlpha" operator="out"/>
<feColorMatrix type="matrix" values="0 0 0 0 0 0 0 0 0 0 0 0 0 0 0 0 0 0 0.25 0"/>
<feBlend mode="normal" in2="BackgroundImageFix" result="effect1_dropShadow_127_1208"/>
<feBlend mode="normal" in="SourceGraphic" in2="effect1_dropShadow_127_1208" result="shape"/>
<feColorMatrix in="SourceAlpha" type="matrix" values="0 0 0 0 0 0 0 0 0 0 0 0 0 0 0 0 0 0 127 0" result="hardAlpha"/>
<feOffset dx="4" dy="3"/>
<feGaussianBlur stdDeviation="0.5"/>
<feComposite in2="hardAlpha" operator="arithmetic" k2="-1" k3="1"/>
<feColorMatrix type="matrix" values="0 0 0 0 0 0 0 0 0 0 0 0 0 0 0 0 0 0 0.25 0"/>
<feBlend mode="normal" in2="shape" result="effect2_innerShadow_127_1208"/>
</filter>
<linearGradient id="paint0_linear_127_1208" x1="19" y1="3" x2="19" y2="35" gradientUnits="userSpaceOnUse">
<stop stop-color="#DDD8B8"/>
<stop offset="1" stop-color="#B4B4B4"/>
</linearGradient>
<linearGradient id="paint1_linear_127_1208" x1="35" y1="19" x2="3" y2="19" gradientUnits="userSpaceOnUse">
<stop stop-color="white" stop-opacity="0"/>
<stop offset="1" stop-color="#DDD8B8"/>
</linearGradient>
<linearGradient id="paint2_linear_127_1208" x1="8.78613" y1="16" x2="0" y2="16" gradientUnits="userSpaceOnUse">
<stop stop-color="white" stop-opacity="0"/>
<stop offset="1" stop-color="#DDD8B8"/>
</linearGradient>
<linearGradient id="paint3_linear_127_1208" x1="9.84615" y1="16" x2="4.74371e-07" y2="16" gradientUnits="userSpaceOnUse">
<stop stop-color="white" stop-opacity="0"/>
<stop offset="1" stop-color="white"/>
</linearGradient>
<linearGradient id="paint4_linear_127_1208" x1="9.62238" y1="16" x2="4.47695e-07" y2="16" gradientUnits="userSpaceOnUse">
<stop stop-color="white" stop-opacity="0"/>
<stop offset="1" stop-color="white"/>
</linearGradient>
<linearGradient id="paint5_linear_127_1208" x1="29.4104" y1="14.7052" x2="-6.42785e-07" y2="14.7052" gradientUnits="userSpaceOnUse">
<stop stop-color="#D9D9D9"/>
<stop offset="1" stop-color="#DDD8B8"/>
</linearGradient>
<linearGradient id="paint6_linear_127_1208" x1="3.82505" y1="14.7052" x2="-6.63009" y2="14.7052" gradientUnits="userSpaceOnUse">
<stop stop-color="white" stop-opacity="0"/>
<stop offset="1" stop-color="white"/>
</linearGradient>
</defs>
</svg>
