<svg width="32" height="32" viewBox="0 0 32 32" fill="none" xmlns="http://www.w3.org/2000/svg">
<circle cx="16" cy="16" r="16" fill="#D9D9D9"/>
<path d="M18.25 10.087C18.25 9.732 18.436 9.411 18.651 9.128C18.872 8.838 19 8.494 19 8.125C19 7.089 17.993 6.25 16.75 6.25C15.507 6.25 14.5 7.09 14.5 8.125C14.5 8.494 14.628 8.838 14.849 9.128C15.064 9.411 15.25 9.732 15.25 10.087C15.2504 10.1727 15.2336 10.2577 15.2006 10.3368C15.1675 10.416 15.1189 10.4876 15.0577 10.5476C14.9964 10.6076 14.9237 10.6546 14.8438 10.686C14.764 10.7173 14.6787 10.7323 14.593 10.73C13.2017 10.6899 11.8127 10.5898 10.43 10.43C10.616 12.043 10.723 13.68 10.745 15.337C10.7459 15.4239 10.7296 15.5101 10.6969 15.5907C10.6642 15.6712 10.6159 15.7444 10.5547 15.8061C10.4934 15.8678 10.4206 15.9167 10.3403 15.95C10.26 15.9833 10.1739 16.0003 10.087 16C9.732 16 9.411 15.814 9.128 15.599C8.84137 15.3751 8.4887 15.2524 8.125 15.25C7.089 15.25 6.25 16.257 6.25 17.5C6.25 18.743 7.09 19.75 8.125 19.75C8.494 19.75 8.838 19.622 9.128 19.401C9.411 19.186 9.732 19 10.087 19C10.397 19 10.642 19.26 10.619 19.57C10.4946 21.2655 10.2803 22.9532 9.977 24.626C11.495 24.816 13.035 24.935 14.593 24.98C14.6787 24.9823 14.764 24.9673 14.8438 24.936C14.9237 24.9047 14.9964 24.8576 15.0577 24.7976C15.1189 24.7376 15.1675 24.666 15.2006 24.5868C15.2336 24.5077 15.2504 24.4227 15.25 24.337C15.25 23.982 15.064 23.661 14.849 23.378C14.6251 23.0914 14.5024 22.7387 14.5 22.375C14.5 21.34 15.508 20.5 16.75 20.5C17.993 20.5 19 21.34 19 22.375C19 22.744 18.872 23.088 18.651 23.378C18.436 23.661 18.251 23.982 18.251 24.337C18.251 24.67 18.528 24.936 18.861 24.917C20.6805 24.81 22.4924 24.5997 24.288 24.287C24.5597 22.7252 24.7539 21.151 24.87 19.57C24.8752 19.4969 24.8653 19.4236 24.8409 19.3545C24.8164 19.2854 24.778 19.2222 24.7279 19.1686C24.6779 19.1151 24.6173 19.0725 24.5501 19.0435C24.4828 19.0145 24.4103 18.9997 24.337 19C23.982 19 23.661 19.186 23.378 19.401C23.088 19.622 22.744 19.75 22.375 19.75C21.34 19.75 20.5 18.743 20.5 17.5C20.5 16.257 21.34 15.25 22.375 15.25C22.745 15.25 23.088 15.378 23.378 15.599C23.661 15.814 23.982 16 24.338 16C24.4249 16.0003 24.511 15.9833 24.5913 15.95C24.6716 15.9167 24.7444 15.8678 24.8057 15.8061C24.8669 15.7444 24.9152 15.6712 24.9479 15.5907C24.9806 15.5101 24.9969 15.4239 24.996 15.337C24.972 13.5449 24.8484 11.7554 24.626 9.977C22.74 10.319 20.816 10.551 18.86 10.666C18.7813 10.6704 18.7025 10.6586 18.6285 10.6314C18.5545 10.6042 18.4869 10.5621 18.4297 10.5078C18.3726 10.4534 18.3272 10.388 18.2963 10.3155C18.2653 10.2429 18.2496 10.1658 18.25 10.087Z" stroke="black" stroke-width="1.5" stroke-linecap="round" stroke-linejoin="round"/>
</svg>
