<svg width="32" height="32" viewBox="0 0 32 32" fill="none" xmlns="http://www.w3.org/2000/svg">
<circle cx="16" cy="16" r="16" fill="#D9D9D9"/>
<path d="M21.3252 14.1758C21.3252 14.6973 21.2256 15.1895 21.0264 15.6523C20.833 16.1094 20.5635 16.5107 20.2178 16.8564C19.8779 17.1963 19.4766 17.4658 19.0137 17.665C18.5566 17.8643 18.0674 17.9639 17.5459 17.9639C17.3643 17.9639 17.2031 17.9961 17.0625 18.0605C16.9277 18.125 16.8135 18.2158 16.7197 18.333C16.6318 18.4443 16.5645 18.5762 16.5176 18.7285C16.4707 18.8809 16.4473 19.0449 16.4473 19.2207V19.8887H13.9336V19.1855C13.9395 18.6699 14.0303 18.1836 14.2061 17.7266C14.3877 17.2695 14.6367 16.874 14.9531 16.54C15.2754 16.2002 15.6562 15.9336 16.0957 15.7402C16.5352 15.541 17.0186 15.4414 17.5459 15.4414C17.7217 15.4414 17.8857 15.4092 18.0381 15.3447C18.1904 15.2803 18.3223 15.1924 18.4336 15.0811C18.5508 14.9639 18.6416 14.8291 18.7061 14.6768C18.7764 14.5186 18.8115 14.3516 18.8115 14.1758C18.8115 14 18.7764 13.8359 18.7061 13.6836C18.6416 13.5312 18.5508 13.3994 18.4336 13.2881C18.3223 13.1709 18.1904 13.0801 18.0381 13.0156C17.8857 12.9512 17.7217 12.9189 17.5459 12.9189H11.7715V10.3965H17.5459C18.0674 10.3965 18.5566 10.4961 19.0137 10.6953C19.4766 10.8945 19.8779 11.167 20.2178 11.5127C20.5635 11.8525 20.833 12.251 21.0264 12.708C21.2256 13.165 21.3252 13.6543 21.3252 14.1758ZM16.7021 22.1035C16.7021 22.3145 16.6611 22.5137 16.5791 22.7012C16.5029 22.8828 16.3975 23.041 16.2627 23.1758C16.1279 23.3105 15.9697 23.416 15.7881 23.4922C15.6064 23.5742 15.4131 23.6152 15.208 23.6152C15.0029 23.6152 14.8066 23.5742 14.6191 23.4922C14.4375 23.416 14.2764 23.3105 14.1357 23.1758C14.001 23.041 13.8926 22.8828 13.8105 22.7012C13.7344 22.5137 13.6963 22.3145 13.6963 22.1035C13.6963 21.8984 13.7344 21.7051 13.8105 21.5234C13.8926 21.3418 14.001 21.1836 14.1357 21.0488C14.2764 20.9141 14.4375 20.8086 14.6191 20.7324C14.8066 20.6504 15.0029 20.6094 15.208 20.6094C15.4131 20.6094 15.6064 20.6504 15.7881 20.7324C15.9697 20.8086 16.1279 20.9141 16.2627 21.0488C16.3975 21.1836 16.5029 21.3418 16.5791 21.5234C16.6611 21.7051 16.7021 21.8984 16.7021 22.1035Z" fill="black"/>
</svg>
