<svg width="38" height="38" viewBox="0 0 38 38" fill="none" xmlns="http://www.w3.org/2000/svg">
<rect x="1.75" y="1.75" width="34.5" height="34.5" rx="16.25" fill="#DDD8B8" stroke="url(#paint0_linear_127_1218)" stroke-width="2.5"/>
<rect x="3" y="3" width="32" height="32" rx="15" fill="url(#paint1_linear_127_1218)"/>
<rect width="32" height="32" rx="15" transform="matrix(-1 0 0 1 35 3)" fill="url(#paint2_linear_127_1218)"/>
<rect width="32" height="32" rx="15" transform="matrix(-4.37114e-08 1 1 4.37114e-08 3 3)" fill="url(#paint3_linear_127_1218)"/>
<rect width="32" height="32" rx="15" transform="matrix(4.37114e-08 -1 -1 -4.37114e-08 35 35)" fill="url(#paint4_linear_127_1218)"/>
<rect width="29.4104" height="29.4104" rx="12" transform="matrix(4.37114e-08 -1 -1 -4.37114e-08 33.7051 33.7053)" fill="url(#paint5_linear_127_1218)"/>
<rect width="29.4104" height="29.4104" rx="12" transform="matrix(4.37114e-08 -1 -1 -4.37114e-08 33.7051 33.7053)" fill="url(#paint6_linear_127_1218)"/>
<g filter="url(#filter0_di_127_1218)">
<path d="M24.3252 17.1758C24.3252 17.6973 24.2256 18.1895 24.0264 18.6523C23.833 19.1094 23.5635 19.5107 23.2178 19.8564C22.8779 20.1963 22.4766 20.4658 22.0137 20.665C21.5566 20.8643 21.0674 20.9639 20.5459 20.9639C20.3643 20.9639 20.2031 20.9961 20.0625 21.0605C19.9277 21.125 19.8135 21.2158 19.7197 21.333C19.6318 21.4443 19.5645 21.5762 19.5176 21.7285C19.4707 21.8809 19.4473 22.0449 19.4473 22.2207V22.8887H16.9336V22.1855C16.9395 21.6699 17.0303 21.1836 17.2061 20.7266C17.3877 20.2695 17.6367 19.874 17.9531 19.54C18.2754 19.2002 18.6562 18.9336 19.0957 18.7402C19.5352 18.541 20.0186 18.4414 20.5459 18.4414C20.7217 18.4414 20.8857 18.4092 21.0381 18.3447C21.1904 18.2803 21.3223 18.1924 21.4336 18.0811C21.5508 17.9639 21.6416 17.8291 21.7061 17.6768C21.7764 17.5186 21.8115 17.3516 21.8115 17.1758C21.8115 17 21.7764 16.8359 21.7061 16.6836C21.6416 16.5312 21.5508 16.3994 21.4336 16.2881C21.3223 16.1709 21.1904 16.0801 21.0381 16.0156C20.8857 15.9512 20.7217 15.9189 20.5459 15.9189H14.7715V13.3965H20.5459C21.0674 13.3965 21.5566 13.4961 22.0137 13.6953C22.4766 13.8945 22.8779 14.167 23.2178 14.5127C23.5635 14.8525 23.833 15.251 24.0264 15.708C24.2256 16.165 24.3252 16.6543 24.3252 17.1758ZM19.7021 25.1035C19.7021 25.3145 19.6611 25.5137 19.5791 25.7012C19.5029 25.8828 19.3975 26.041 19.2627 26.1758C19.1279 26.3105 18.9697 26.416 18.7881 26.4922C18.6064 26.5742 18.4131 26.6152 18.208 26.6152C18.0029 26.6152 17.8066 26.5742 17.6191 26.4922C17.4375 26.416 17.2764 26.3105 17.1357 26.1758C17.001 26.041 16.8926 25.8828 16.8105 25.7012C16.7344 25.5137 16.6963 25.3145 16.6963 25.1035C16.6963 24.8984 16.7344 24.7051 16.8105 24.5234C16.8926 24.3418 17.001 24.1836 17.1357 24.0488C17.2764 23.9141 17.4375 23.8086 17.6191 23.7324C17.8066 23.6504 18.0029 23.6094 18.208 23.6094C18.4131 23.6094 18.6064 23.6504 18.7881 23.7324C18.9697 23.8086 19.1279 23.9141 19.2627 24.0488C19.3975 24.1836 19.5029 24.3418 19.5791 24.5234C19.6611 24.7051 19.7021 24.8984 19.7021 25.1035Z" fill="black"/>
</g>
<defs>
<filter id="filter0_di_127_1218" x="13.7715" y="13.3965" width="11.5537" height="15.2188" filterUnits="userSpaceOnUse" color-interpolation-filters="sRGB">
<feFlood flood-opacity="0" result="BackgroundImageFix"/>
<feColorMatrix in="SourceAlpha" type="matrix" values="0 0 0 0 0 0 0 0 0 0 0 0 0 0 0 0 0 0 127 0" result="hardAlpha"/>
<feOffset dy="1"/>
<feGaussianBlur stdDeviation="0.5"/>
<feComposite in2="hardAlpha" operator="out"/>
<feColorMatrix type="matrix" values="0 0 0 0 0 0 0 0 0 0 0 0 0 0 0 0 0 0 0.25 0"/>
<feBlend mode="normal" in2="BackgroundImageFix" result="effect1_dropShadow_127_1218"/>
<feBlend mode="normal" in="SourceGraphic" in2="effect1_dropShadow_127_1218" result="shape"/>
<feColorMatrix in="SourceAlpha" type="matrix" values="0 0 0 0 0 0 0 0 0 0 0 0 0 0 0 0 0 0 127 0" result="hardAlpha"/>
<feOffset dx="4" dy="3"/>
<feGaussianBlur stdDeviation="0.5"/>
<feComposite in2="hardAlpha" operator="arithmetic" k2="-1" k3="1"/>
<feColorMatrix type="matrix" values="0 0 0 0 0 0 0 0 0 0 0 0 0 0 0 0 0 0 0.25 0"/>
<feBlend mode="normal" in2="shape" result="effect2_innerShadow_127_1218"/>
</filter>
<linearGradient id="paint0_linear_127_1218" x1="19" y1="3" x2="19" y2="35" gradientUnits="userSpaceOnUse">
<stop stop-color="#DDD8B8"/>
<stop offset="1" stop-color="#B4B4B4"/>
</linearGradient>
<linearGradient id="paint1_linear_127_1218" x1="35" y1="19" x2="3" y2="19" gradientUnits="userSpaceOnUse">
<stop stop-color="white" stop-opacity="0"/>
<stop offset="1" stop-color="#DDD8B8"/>
</linearGradient>
<linearGradient id="paint2_linear_127_1218" x1="8.78613" y1="16" x2="0" y2="16" gradientUnits="userSpaceOnUse">
<stop stop-color="white" stop-opacity="0"/>
<stop offset="1" stop-color="#DDD8B8"/>
</linearGradient>
<linearGradient id="paint3_linear_127_1218" x1="9.84615" y1="16" x2="4.74371e-07" y2="16" gradientUnits="userSpaceOnUse">
<stop stop-color="white" stop-opacity="0"/>
<stop offset="1" stop-color="white"/>
</linearGradient>
<linearGradient id="paint4_linear_127_1218" x1="9.62238" y1="16" x2="4.47695e-07" y2="16" gradientUnits="userSpaceOnUse">
<stop stop-color="white" stop-opacity="0"/>
<stop offset="1" stop-color="white"/>
</linearGradient>
<linearGradient id="paint5_linear_127_1218" x1="29.4104" y1="14.7052" x2="-6.42785e-07" y2="14.7052" gradientUnits="userSpaceOnUse">
<stop stop-color="#D9D9D9"/>
<stop offset="1" stop-color="#DDD8B8"/>
</linearGradient>
<linearGradient id="paint6_linear_127_1218" x1="3.82505" y1="14.7052" x2="-6.63009" y2="14.7052" gradientUnits="userSpaceOnUse">
<stop stop-color="white" stop-opacity="0"/>
<stop offset="1" stop-color="white"/>
</linearGradient>
</defs>
</svg>
